<mxfile host="app.diagrams.net" modified="2023-07-10T13:17:06.992Z" agent="Mozilla/5.0 (X11; Linux x86_64; rv:101.0) Gecko/20100101 Firefox/101.0" version="21.6.1" etag="pFWx3BGMV8bMW63bY4a1" type="github">
  <diagram name="Страница 1" id="sZcEX8NjpGKJp34SxkrZ">
    <mxGraphModel>
      <root>
        <mxCell id="0" />
        <mxCell id="1" parent="0" />
      </root>
    </mxGraphModel>
  </diagram>
</mxfile>
